<?xml version="1.0" encoding="UTF-8"?>
<svg version="1.1" xmlns="http://www.w3.org/2000/svg" width="400" height="400">
<path d="M0 0 C3.1916173 0.00536406 6.38309394 0.00001697 9.57470703 -0.00634766 C27.18889775 -0.01375924 44.57661205 0.75369401 62.07080078 2.81787109 C63.15216309 2.94417404 63.15216309 2.94417404 64.25537109 3.07302856 C78.95578209 4.817817 93.31536504 7.5867546 107.69580078 11.13037109 C108.60330078 11.35370117 109.51080078 11.57703125 110.44580078 11.80712891 C119.85959153 14.17133931 128.86135486 17.06391012 137.69580078 21.13037109 C138.89076172 21.67435547 140.08572266 22.21833984 141.31689453 22.77880859 C144.44991096 24.21547705 147.57569065 25.66593231 150.69580078 27.13037109 C150.69580078 27.79037109 150.69580078 28.45037109 150.69580078 29.13037109 C152.67580078 29.79037109 154.65580078 30.45037109 156.69580078 31.13037109 C156.69580078 31.79037109 156.69580078 32.45037109 156.69580078 33.13037109 C157.53111328 33.43974609 157.53111328 33.43974609 158.38330078 33.75537109 C162.73099964 36.34048933 165.74424473 40.50648048 167.69580078 45.13037109 C167.94995111 47.07694238 167.94995111 47.07694238 167.955863 49.15373898 C167.96646139 50.34715622 167.96646139 50.34715622 167.97727388 51.5646829 C167.9748588 52.4328662 167.97244371 53.3010495 167.96995544 54.19554138 C167.97519212 55.12239764 167.9804288 56.04925389 167.98582417 57.0041967 C168.00085399 60.11718036 168.00152997 63.23000009 168.00219727 66.34301758 C168.00981664 68.57192259 168.01824375 70.80082497 168.02742004 73.02972412 C168.04939137 79.08955212 168.05816728 85.14932966 168.06324649 91.20919299 C168.06688636 94.99296911 168.07312443 98.77673194 168.08024788 102.56050301 C168.09970396 113.03740177 168.11621721 123.51429258 168.11912441 133.99120998 C168.11931198 134.66145944 168.11949955 135.3317089 168.11969281 136.02226895 C168.12005905 137.38100501 168.12042275 138.73974106 168.12078392 140.09847712 C168.12096673 140.77294988 168.12114954 141.44742265 168.12133789 142.14233398 C168.12160871 143.15527798 168.12160871 143.15527798 168.12188501 144.18868548 C168.12542832 155.13620413 168.15246196 166.08352629 168.18983578 177.03097676 C168.22790266 188.27136704 168.2468405 199.51166294 168.24758393 210.75212914 C168.2483783 217.06302595 168.25719084 223.37366917 168.28558159 229.68450737 C168.31167816 235.61810923 168.3140143 241.5512457 168.29792595 247.48487854 C168.29610487 249.66458205 168.30286116 251.84431181 168.31874466 254.02395821 C168.33908461 256.99593438 168.32872429 259.9662636 168.31053162 262.93821716 C168.33033157 264.23714603 168.33033157 264.23714603 168.35053152 265.56231588 C168.28953539 269.91389815 168.12646977 271.59393087 165.3117075 275.0999918 C162.81388185 277.03872051 160.37015906 278.72656553 157.62548828 280.29443359 C156.65546875 280.85396729 155.68544922 281.41350098 154.68603516 281.98999023 C153.14399414 282.86385376 153.14399414 282.86385376 151.57080078 283.75537109 C150.50925781 284.36566162 149.44771484 284.97595215 148.35400391 285.60473633 C146.18300274 286.85234657 144.01015008 288.09674055 141.83544922 289.33789062 C138.08781507 291.47748082 134.3495548 293.63290596 130.61425781 295.79394531 C129.05662596 296.69493769 127.4977968 297.59386495 125.9375 298.49023438 C121.68307039 300.94192318 117.52978781 303.49112563 113.43994141 306.21020508 C111.69580078 307.13037109 111.69580078 307.13037109 108.69580078 307.13037109 C108.69580078 307.79037109 108.69580078 308.45037109 108.69580078 309.13037109 C106.04841162 310.5909996 104.80131744 311.13037109 101.69580078 311.13037109 C101.69580078 311.79037109 101.69580078 312.45037109 101.69580078 313.13037109 C101.06416016 313.47068359 100.43251953 313.81099609 99.78173828 314.16162109 C84.40205731 322.49412836 69.27743873 331.31142554 54.32080078 340.38037109 C51.14330618 342.29631417 47.92811395 344.10696714 44.66064453 345.86474609 C38.58103336 349.16852945 32.60256956 352.63206642 26.63330078 356.13037109 C25.62203125 356.72076172 24.61076172 357.31115234 23.56884766 357.91943359 C22.56789062 358.50466797 21.56693359 359.08990234 20.53564453 359.69287109 C19.06973877 360.54558594 19.06973877 360.54558594 17.57421875 361.41552734 C15.66139201 362.55511132 13.76901915 363.72977727 11.89941406 364.93896484 C11.02913574 365.49712891 10.15885742 366.05529297 9.26220703 366.63037109 C8.49980713 367.13568359 7.73740723 367.64099609 6.9519043 368.16162109 C4.13248108 369.37225537 2.58896885 368.98770058 -0.30419922 368.13037109 C-0.30419922 367.47037109 -0.30419922 366.81037109 -0.30419922 366.13037109 C-1.15304688 365.96601562 -1.15304688 365.96601562 -2.01904297 365.79833984 C-4.63674249 365.03316614 -6.55756266 363.89226323 -8.86669922 362.44287109 C-12.38385168 360.28123432 -15.92028691 358.21457049 -19.55419922 356.25537109 C-28.51252287 351.41030591 -37.34173297 346.38209982 -45.99169922 341.00537109 C-50.72902173 338.06456944 -55.52411294 335.31951156 -60.43701172 332.68505859 C-63.69028888 330.92102003 -66.90642668 329.09601597 -70.11669922 327.25537109 C-70.98935425 326.75529541 -70.98935425 326.75529541 -71.87963867 326.24511719 C-73.68830247 325.2076968 -75.4963359 324.16918575 -77.30419922 323.13037109 C-79.84509698 321.67069271 -82.38690222 320.21261077 -84.92919922 318.75537109 C-86.05583984 318.10826172 -87.18248047 317.46115234 -88.34326172 316.79443359 C-90.63976619 315.50378596 -92.9331426 314.27541795 -95.30419922 313.13037109 C-95.30419922 312.47037109 -95.30419922 311.81037109 -95.30419922 311.13037109 C-96.12146484 310.89833984 -96.93873047 310.66630859 -97.78076172 310.42724609 C-102.06674138 308.84970147 -105.76343453 306.7088201 -109.67919922 304.38037109 C-111.36930136 303.38818014 -113.05940563 302.39599282 -114.74951172 301.40380859 C-115.64573242 300.8749707 -116.54195312 300.34613281 -117.46533203 299.80126953 C-121.45237192 297.45458042 -125.45364638 295.13262841 -129.4543457 292.80932617 C-132.52202633 291.02409406 -135.58336382 289.22835535 -138.64404297 287.43115234 C-142.09408845 285.40807389 -145.55832464 283.42148959 -149.05810547 281.48583984 C-149.75452148 281.09219238 -150.4509375 280.69854492 -151.16845703 280.29296875 C-152.9631645 279.27956626 -154.76801422 278.28418137 -156.57373047 277.29052734 C-160.3542035 274.29968101 -161.95381574 270.77511708 -162.57849586 266.05993974 C-162.69234763 263.71549481 -162.70898003 261.38895271 -162.69187927 259.04179382 C-162.69726481 258.14857054 -162.70265035 257.25534726 -162.70819908 256.3350566 C-162.72246245 253.35351906 -162.71537885 250.37242651 -162.70825195 247.39086914 C-162.71395643 245.24845015 -162.72092099 243.10603421 -162.72904968 240.96362305 C-162.7469894 235.15152417 -162.7458109 229.3395762 -162.7401073 223.52745795 C-162.73701605 218.67170685 -162.74310733 213.81598477 -162.74914604 208.9602378 C-162.76319289 197.50170624 -162.76162915 186.04324923 -162.75024414 174.5847168 C-162.73876782 162.77348584 -162.7528302 150.96248207 -162.77964061 139.15128106 C-162.801813 129.00243142 -162.80843136 118.85365301 -162.8025642 108.70478088 C-162.79919652 102.6470059 -162.80159711 96.58937649 -162.81881523 90.53162193 C-162.83430621 84.83273508 -162.8303046 79.13418405 -162.81151009 73.43531036 C-162.80782994 71.34801865 -162.81091585 69.26070195 -162.82139587 67.1734333 C-162.92921311 43.91765737 -162.92921311 43.91765737 -154.99169922 35.31787109 C-149.47106478 30.11804834 -143.21543672 26.30577477 -136.36669922 23.13037109 C-135.62798584 22.78643311 -134.88927246 22.44249512 -134.12817383 22.08813477 C-127.36827364 19.02238938 -120.50355224 16.7154667 -113.36523438 14.71142578 C-111.23877822 14.11192736 -109.12130792 13.48597213 -107.00341797 12.85693359 C-90.26892148 7.95496551 -73.47895575 5.00396006 -56.17919922 2.94287109 C-55.47666016 2.85810516 -54.77412109 2.77333923 -54.05029297 2.68600464 C-36.03378061 0.53733559 -18.13779506 -0.03616986 0 0 Z " fill="#1C323A" transform="translate(197.30419921875,16.86962890625)"/>
<path d="M0 0 C1.18835247 -0.00467997 2.37670493 -0.00935994 3.60106808 -0.01418173 C6.89622693 -0.02407872 10.19087295 -0.02051519 13.48600066 -0.01122308 C17.04095261 -0.00443863 20.59585958 -0.01491085 24.15080261 -0.02316284 C31.11385671 -0.03650926 38.07681384 -0.03361829 45.03987174 -0.02492492 C50.69903456 -0.01815181 56.35817019 -0.01723004 62.01733589 -0.02049637 C62.82255623 -0.02095607 63.62777656 -0.02141577 64.45739751 -0.0218894 C66.09316246 -0.02284857 67.7289274 -0.02382121 69.36469234 -0.02480717 C84.70704192 -0.03336387 100.04933775 -0.02352284 115.39167852 -0.00740607 C128.55615429 0.00599482 141.72055069 0.00367146 154.88502502 -0.01016235 C170.17064584 -0.02621763 185.45621951 -0.03253718 200.74184757 -0.02332556 C202.3719257 -0.02236991 204.00200384 -0.0214268 205.63208199 -0.02049637 C206.43411886 -0.02003354 207.23615574 -0.01957072 208.06249676 -0.01909386 C213.7143591 -0.01650363 219.36619154 -0.02087575 225.01804924 -0.02793503 C231.90659886 -0.03634976 238.79504592 -0.0340706 245.68358379 -0.0180928 C249.19825672 -0.01020927 252.71275868 -0.00711971 256.22743034 -0.01704025 C260.03713355 -0.02763087 263.84655688 -0.01498367 267.65625 0 C268.76762831 -0.00669217 269.87900661 -0.01338433 271.02406305 -0.02027929 C276.51701325 0.02174651 280.74053219 0.10934174 285.39161682 3.38095093 C295.60924864 17.00446002 288.39161682 37.35156456 288.39161682 54.38095093 C186.75161682 54.38095093 85.11161682 54.38095093 -19.60838318 54.38095093 C-19.60838318 8.38095093 -19.60838318 8.38095093 -16.60838318 3.38095093 C-11.93139131 -0.88296005 -5.95659596 -0.0357958 0 0 Z " fill="#8FA4B0" transform="translate(66.60838317871094,88.61904907226563)"/>
<path d="M0 0 C24.09 0 48.18 0 73 0 C73 26.4 73 52.8 73 80 C66.07 83.96 59.14 87.92 52 92 C51.34 91.67 50.68 91.34 50 91 C47.89471067 90.91456105 45.78668843 90.89285275 43.6796875 90.90234375 C41.79443359 90.90717773 41.79443359 90.90717773 39.87109375 90.91210938 C38.55238281 90.92048828 37.23367188 90.92886719 35.875 90.9375 C34.53515789 90.94251511 33.195314 90.94707799 31.85546875 90.95117188 C28.57026794 90.96298914 25.28515603 90.97946383 22 91 C23.10343836 91.9632683 24.2094005 92.92364604 25.31640625 93.8828125 C25.93201416 94.41793457 26.54762207 94.95305664 27.18188477 95.50439453 C29.32275301 97.26550086 31.56840325 98.6736745 34 100 C32.62281225 104.13156325 29.84343515 105.25027558 26.25 107.3125 C25.62867188 107.69728516 25.00734375 108.08207031 24.3671875 108.47851562 C21.37620772 110.21063366 19.69899702 111.16452854 16.26171875 110.35546875 C15.51535156 109.90816406 14.76898438 109.46085937 14 109 C4.92628025 103.72074487 -3.10527379 101.10571943 -13.71875 103.65234375 C-20.43208815 106.06624466 -23.08830987 108.82727113 -29 114 C-9.695 114.495 -9.695 114.495 10 115 C7.07347141 117.92652859 4.58436737 119.5262108 1.00390625 121.546875 C0.41512192 121.88116516 -0.17366241 122.21545532 -0.7802887 122.55987549 C-2.6634587 123.6278628 -4.55031018 124.68913507 -6.4375 125.75 C-8.28346811 126.79334166 -10.12862989 127.83804459 -11.97225952 128.88551331 C-13.20493933 129.58119392 -14.4418766 130.26937985 -15.68276978 130.95030212 C-18.52604393 132.52206438 -21.10777267 134.08229682 -23.69873047 136.06079102 C-33.91215387 143.53668363 -46.19297092 141.75126201 -58.25 141.4375 C-66.0875 141.293125 -73.925 141.14875 -82 141 C-82 115.92 -82 90.84 -82 65 C-79.69 66.98 -77.38 68.96 -75 71 C-67.23719075 76.10517631 -60.2678137 78.41165374 -51 77 C-43.22590722 75.2203884 -37.40973863 71.87260397 -32 66 C-31.67 65.34 -31.34 64.68 -31 64 C-47.83 64 -64.66 64 -82 64 C-82 47.5 -82 31 -82 14 C-79.69 15.98 -77.38 17.96 -75 20 C-72.58481052 21.63332435 -72.58481052 21.63332435 -70.3125 22.8125 C-69.58675781 23.21082031 -68.86101562 23.60914063 -68.11328125 24.01953125 C-60.97352292 27.33206238 -52.1407005 27.10328875 -44.8125 24.5 C-41.0887759 22.80791021 -38.76646378 20.85795849 -35.96337891 17.90795898 C-30.5229452 12.98786409 -25.88980324 12.84655317 -18.7734375 12.97265625 C-17.62638336 12.96737411 -16.47932922 12.96209198 -15.29751587 12.95664978 C-12.88544815 12.9555928 -10.47329841 12.97436966 -8.06152344 13.01196289 C-4.3773292 13.06246807 -0.69984665 13.03270214 2.984375 12.99414062 C5.33596048 13.00301971 7.68753399 13.0165337 10.0390625 13.03515625 C11.13401031 13.02412369 12.22895813 13.01309113 13.35708618 13.00172424 C18.79339923 13.13502211 22.08185669 13.43113622 25.98583984 17.41186523 C26.47901703 18.02529282 26.97219421 18.6387204 27.48031616 19.27073669 C31.31869622 23.63846742 37.59082662 25.69382208 43.26171875 26.203125 C53.32666826 26.39761678 61.19274309 23.41198409 69 17 C70.01867318 15.68087805 71.02134298 14.3490768 72 13 C71.07491135 13.02664734 71.07491135 13.02664734 70.13113403 13.05383301 C63.67439098 13.23171658 57.21835068 13.35184345 50.75976562 13.43945312 C48.35420429 13.47952427 45.94883584 13.53399875 43.54394531 13.60351562 C40.07308246 13.70128641 36.60480778 13.74609182 33.1328125 13.78125 C32.06886261 13.82254028 31.00491272 13.86383057 29.90872192 13.90637207 C22.41092922 13.91081244 18.60175838 11.94814943 13.09130859 6.88427734 C10.55141467 4.59582283 8.12852191 3.50108367 4.875 2.5 C3.94429688 2.2009375 3.01359375 1.901875 2.0546875 1.59375 C1.37664062 1.3978125 0.69859375 1.201875 0 1 C0 0.67 0 0.34 0 0 Z " fill="#020304" transform="translate(282,205)"/>
<path d="M0 0 C8.91 0 17.82 0 27 0 C27 21.12 27 42.24 27 64 C20.565 64.99 20.565 64.99 14 66 C11.12682532 66.88544377 8.63348124 67.71690112 5.9375 68.9375 C5.27121582 69.23615967 4.60493164 69.53481934 3.91845703 69.8425293 C-9.67974658 76.36165851 -18.05049905 87.78089993 -23.25390625 101.70703125 C-26.50743973 111.70611057 -25.55734886 122.35434101 -22.75390625 132.30859375 C-22.03929679 134.85971251 -21.48660035 137.39692435 -21 140 C-29.93577328 135.72329076 -38.49659561 131.03769828 -47 125.96484375 C-53.21111064 122.26375557 -59.4830003 118.66775394 -65.75 115.0625 C-67.97414319 113.78287333 -70.19811211 112.5029437 -72.421875 111.22265625 C-73.85418457 110.39906616 -73.85418457 110.39906616 -75.31542969 109.55883789 C-76.20133789 109.04442139 -77.08724609 108.53000488 -78 108 C-78.92997803 107.54383301 -79.85995605 107.08766602 -80.81811523 106.61767578 C-83 105 -83 105 -83.56762695 102.63989258 C-83.54144287 101.73392334 -83.51525879 100.8279541 -83.48828125 99.89453125 C-83.47216797 98.91162109 -83.45605469 97.92871094 -83.43945312 96.91601562 C-83.39755859 95.89185547 -83.35566406 94.86769531 -83.3125 93.8125 C-83.28994141 92.77673828 -83.26738281 91.74097656 -83.24414062 90.67382812 C-83.18518768 88.11527029 -83.09550659 85.55745423 -83 83 C-76.4 83 -69.8 83 -63 83 C-62.67 80.69 -62.34 78.38 -62 76 C-61.0505633 73.87296739 -59.94111823 71.98489306 -58.7421875 69.9921875 C-57.68636483 67.15813716 -57.95297474 65.84434797 -59 63 C-60.80957182 60.90812369 -62.55633566 59.06342645 -64.5625 57.1875 C-65.08263672 56.68541016 -65.60277344 56.18332031 -66.13867188 55.66601562 C-67.4168857 54.43470873 -68.70727147 53.2160593 -70 52 C-66.16102086 47.39322504 -62.15419866 43.12048461 -57.8828125 38.9140625 C-56.26328376 37.26765361 -54.77056929 35.60069818 -53.3125 33.8125 C-50.32390576 30.17772322 -47.22269922 26.94759189 -43.5 24.0625 C-40.58556814 21.65809371 -38.40885898 18.9029839 -36 16 C-34.68 15.01 -33.36 14.02 -32 13 C-27.71 17.29 -23.42 21.58 -19 26 C-14.08438077 24.36146026 -9.24091006 22.62023136 -4.390625 20.8046875 C-2 20 -2 20 0 20 C0 13.4 0 6.8 0 0 Z " fill="#618693" transform="translate(173,205)"/>
<path d="M0 0 C41.58 0 83.16 0 126 0 C126 6.6 126 13.2 126 20 C123.6075 20.969375 121.215 21.93875 118.75 22.9375 C117.62996582 23.39370728 117.62996582 23.39370728 116.48730469 23.85913086 C109.41445486 26.70596243 109.41445486 26.70596243 107 27 C105.35253906 25.92016602 105.35253906 25.92016602 103.765625 24.25390625 C103.19199219 23.66416016 102.61835938 23.07441406 102.02734375 22.46679688 C101.44082031 21.83837891 100.85429687 21.20996094 100.25 20.5625 C99.64800781 19.93794922 99.04601562 19.31339844 98.42578125 18.66992188 C96.9390699 17.12421404 95.4680135 15.5634768 94 14 C92.00016466 14.79117904 92.00016466 14.79117904 90 16 C89.505 17.485 89.505 17.485 89 19 C87.29296875 20.6484375 87.29296875 20.6484375 85.1875 22.375 C82.03968063 25.02727714 79.55083424 27.7624027 77 31 C76.34 31 75.68 31 75 31 C74.67 31.99 74.34 32.98 74 34 C72.38067063 35.71269611 70.70384452 37.37135965 69 39 C67.95959309 40.03510716 66.92191602 41.072964 65.88671875 42.11328125 C62.92447917 45.07552083 59.96223958 48.03776042 57 51 C57.87151615 52.04458319 58.74746967 53.08546407 59.625 54.125 C60.16511719 54.76566406 60.70523438 55.40632813 61.26171875 56.06640625 C62.89414153 57.88224732 64.60963804 59.4486734 66.4375 61.0625 C69 64 69 64 69.125 66.8125 C67.90883619 70.25829746 66.51083073 73.55450914 64.9375 76.8515625 C63.8199181 79.2508169 63.8199181 79.2508169 63 83 C56.4 83 49.8 83 43 83 C43 89.93 43 96.86 43 104 C38.95004074 102.3800163 35.49804326 100.67332851 31.73828125 98.515625 C30.85223457 98.00850983 30.85223457 98.00850983 29.94828796 97.4911499 C28.70106629 96.77653814 27.45472813 96.06038238 26.20922852 95.34277344 C24.33731237 94.2642953 22.46288413 93.19030475 20.58789062 92.1171875 C13.75250516 88.19655849 13.75250516 88.19655849 11.94262695 87.07302856 C9.94072063 85.90113442 9.94072063 85.90113442 7.37670898 85.04977417 C4.20003189 83.69708338 2.30259492 82.59407327 0 80 C-1.43936951 73.97870384 -1.16697608 68.06915393 -0.9765625 61.9140625 C-0.96184767 60.33166007 -0.95165323 58.74920896 -0.94604492 57.16674805 C-0.89375245 51.31875329 -0.7541366 45.47180262 -0.625 39.625 C-0.41875 26.54875 -0.2125 13.4725 0 0 Z " fill="#1D5162" transform="translate(47,205)"/>
<path d="M0 0 C2.31 1.98 4.62 3.96 7 6 C14.76839781 11.1088516 21.72733152 13.40196844 31 12 C37.3035062 10.61630352 41.62872214 8.61954804 46.05249023 3.89257812 C51.55667196 -1.11496482 56.28291604 -1.04801019 63.47265625 -0.78125 C64.6363121 -0.76993042 65.79996796 -0.75861084 66.99888611 -0.74694824 C70.68848503 -0.70242969 74.37409072 -0.60210129 78.0625 -0.5 C80.57481338 -0.45984185 83.08718812 -0.42334521 85.59960938 -0.390625 C91.73441822 -0.30277485 97.8669238 -0.16918169 104 0 C104.495 1.485 104.495 1.485 105 3 C106.84442515 4.08664524 106.84442515 4.08664524 109 5 C110.98679692 6.23236707 112.94401145 7.50424604 114.90234375 8.78125 C121.78403963 12.77955375 128.70982363 12.92221775 136.46484375 11.5703125 C141.90190038 10.02232801 145.84516518 7.12414763 150.15234375 3.5234375 C152 2 152 2 154 1 C155.10252147 6.00097975 155.45538253 10.04964956 154 15 C148.26600007 20.82216106 139.53511113 24.16112046 132 27 C132 26.67 132 26.34 132 26 C122.76 26 113.52 26 104 26 C109.78958828 31.05218019 109.78958828 31.05218019 116 35 C114.62281225 39.13156325 111.84343515 40.25027558 108.25 42.3125 C107.62867188 42.69728516 107.00734375 43.08207031 106.3671875 43.47851562 C103.37620772 45.21063366 101.69899702 46.16452854 98.26171875 45.35546875 C97.14216797 44.68451172 97.14216797 44.68451172 96 44 C86.92628025 38.72074487 78.89472621 36.10571943 68.28125 38.65234375 C61.56791185 41.06624466 58.91169013 43.82727113 53 49 C72.305 49.495 72.305 49.495 92 50 C89.07347141 52.92652859 86.58436737 54.5262108 83.00390625 56.546875 C82.41512192 56.88116516 81.82633759 57.21545532 81.2197113 57.55987549 C79.3365413 58.6278628 77.44968982 59.68913507 75.5625 60.75 C73.71653189 61.79334166 71.87137011 62.83804459 70.02774048 63.88551331 C68.79506067 64.58119392 67.5581234 65.26937985 66.31723022 65.95030212 C63.47395607 67.52206438 60.89222733 69.08229682 58.30126953 71.06079102 C48.08784613 78.53668363 35.80702908 76.75126201 23.75 76.4375 C15.9125 76.293125 8.075 76.14875 0 76 C0 50.92 0 25.84 0 0 Z " fill="#010202" transform="translate(200,270)"/>
<path d="M0 0 C1.16075043 0.00007553 2.32150085 0.00015106 3.51742554 0.00022888 C4.75513702 0.00539017 5.99284851 0.01055145 7.26806641 0.01586914 C8.54694733 0.01728409 9.82582825 0.01869904 11.14346313 0.02015686 C14.52674227 0.02479517 17.90995277 0.03376458 21.29321289 0.04486084 C24.75227265 0.05513024 28.21133952 0.05966628 31.67041016 0.06469727 C38.44516857 0.0757093 45.21989478 0.09243475 51.99462891 0.11352539 C48.93567657 6.46453967 44.30623291 9.84004659 37.80712891 12.48852539 C29.16817059 15.27376332 21.90742425 15.38143297 13.61962891 11.48852539 C8.57655859 8.86279456 6.3053675 6.42426399 1.99462891 2.11352539 C1.66462891 26.86352539 1.33462891 51.61352539 0.99462891 77.11352539 C16.83462891 77.11352539 32.67462891 77.11352539 48.99462891 77.11352539 C30.85132673 90.72100203 30.85132673 90.72100203 20.52197266 89.74243164 C12.95300712 87.85896417 7.96861889 84.09185038 1.99462891 79.11352539 C1.66462891 87.36352539 1.33462891 95.61352539 0.99462891 104.11352539 C-6.84708075 99.85214967 -14.65622369 95.53712366 -22.44287109 91.17602539 C-23.48507813 90.59401367 -24.52728516 90.01200195 -25.60107422 89.41235352 C-27.69074436 88.24250098 -29.77682092 87.06620464 -31.85913086 85.88330078 C-34.01418604 84.67107179 -36.18501337 83.48658084 -38.3684082 82.32617188 C-39.44227783 81.74037354 -40.51614746 81.1545752 -41.62255859 80.55102539 C-42.59177246 80.03540039 -43.56098633 79.51977539 -44.55957031 78.98852539 C-49.06459949 75.53487954 -50.00739216 70.48562478 -51.00537109 65.11352539 C-51.19357422 64.12094727 -51.38177734 63.12836914 -51.57568359 62.10571289 C-53.6372051 47.75002675 -50.52052397 33.18692184 -41.81787109 21.42602539 C-34.68628598 12.93897702 -27.38102774 7.08209452 -17.00537109 3.11352539 C-16.19712891 2.76161133 -15.38888672 2.40969727 -14.55615234 2.04711914 C-9.77938147 0.29880637 -5.05244497 -0.01103154 0 0 Z " fill="#1D5162" transform="translate(199.00537109375,268.886474609375)"/>
<path d="M0 0 C1.72482605 -0.00861053 1.72482605 -0.00861053 3.48449707 -0.01739502 C5.90846738 -0.02146636 8.33250414 -0.01047579 10.75634766 0.01464844 C14.45755529 0.04677782 18.15439625 0.01492578 21.85546875 -0.0234375 C24.21615543 -0.01947245 26.5768394 -0.0117847 28.9375 0 C30.58933289 -0.01821808 30.58933289 -0.01821808 32.27453613 -0.0368042 C37.49039293 0.05823382 40.98985532 0.24717395 45.03710938 3.72949219 C46.01682019 4.74956052 46.99427875 5.77180014 47.96875 6.796875 C49.60709629 7.84262795 51.26242772 8.86615375 52.96875 9.796875 C51.59156225 13.92843825 48.81218515 15.04715058 45.21875 17.109375 C44.59742188 17.49416016 43.97609375 17.87894531 43.3359375 18.27539062 C40.34495772 20.00750866 38.66774702 20.96140354 35.23046875 20.15234375 C34.11091797 19.48138672 34.11091797 19.48138672 32.96875 18.796875 C23.89503025 13.51761987 15.86347621 10.90259443 5.25 13.44921875 C-1.46333815 15.86311966 -4.11955987 18.62414613 -10.03125 23.796875 C9.27375 24.291875 9.27375 24.291875 28.96875 24.796875 C26.04222141 27.72340359 23.55311737 29.3230858 19.97265625 31.34375 C19.38387192 31.67804016 18.79508759 32.01233032 18.1884613 32.35675049 C16.3052913 33.4247378 14.41843982 34.48601007 12.53125 35.546875 C10.68528189 36.59021666 8.84012011 37.63491959 6.99649048 38.68238831 C5.76381067 39.37806892 4.5268734 40.06625485 3.28598022 40.74717712 C0.44270607 42.31893938 -2.13902267 43.87917182 -4.72998047 45.85766602 C-14.93805122 53.32964067 -27.23171322 51.55446509 -39.28125 51.234375 C-41.58719213 51.1992106 -43.89318597 51.16728068 -46.19921875 51.13867188 C-51.81223079 51.06805526 -57.41797351 50.93103146 -63.03125 50.796875 C-63.03125 42.546875 -63.03125 34.296875 -63.03125 25.796875 C-60.72125 27.776875 -58.41125 29.756875 -56.03125 31.796875 C-48.26844075 36.90205131 -41.2990637 39.20852874 -32.03125 37.796875 C-24.25715722 36.0172634 -18.44098863 32.66947897 -13.03125 26.796875 C-12.70125 26.136875 -12.37125 25.476875 -12.03125 24.796875 C-28.53125 24.796875 -45.03125 24.796875 -62.03125 24.796875 C-62.03125 17.206875 -62.03125 9.616875 -62.03125 1.796875 C-57.97851562 4.43359375 -57.97851562 4.43359375 -53.92578125 7.0703125 C-45.53910619 12.0728906 -35.38679566 12.211004 -25.94140625 10.109375 C-22.7583537 8.93228315 -20.05600149 7.89624192 -17.70095825 5.36972046 C-12.38165446 -0.13545144 -7.36844577 -0.08126665 0 0 Z " fill="#010202" transform="translate(263.03125,295.203125)"/>
<path d="M0 0 C1.14705414 -0.00528214 2.29410828 -0.01056427 3.47592163 -0.01600647 C5.88798935 -0.01706345 8.30013909 0.00171341 10.71191406 0.03930664 C14.3961083 0.08981182 18.07359085 0.06004589 21.7578125 0.02148438 C24.10939798 0.03036346 26.46097149 0.04387745 28.8125 0.0625 C29.90744781 0.05146744 31.00239563 0.04043488 32.13052368 0.02906799 C37.56683673 0.16236586 40.85529419 0.45847997 44.75927734 4.43920898 C45.25245453 5.05263657 45.74563171 5.66606415 46.25375366 6.29808044 C50.09213372 10.66581117 56.36426412 12.72116583 62.03515625 13.23046875 C72.49777702 13.432645 79.40052525 10.06323833 87.7734375 4.02734375 C88.7634375 3.36734375 89.7534375 2.70734375 90.7734375 2.02734375 C90.7734375 9.94734375 90.7734375 17.86734375 90.7734375 26.02734375 C83.67242405 26.21158626 76.57977608 26.37062916 69.47827148 26.46679688 C67.06587553 26.50689837 64.65367244 26.56139581 62.24194336 26.63085938 C58.76367531 26.72849497 55.28798742 26.77340519 51.80859375 26.80859375 C50.73948257 26.84988403 49.6703714 26.89117432 48.56886292 26.93371582 C42.57036305 26.93726801 39.35412017 26.23093987 34.84936523 22.13476562 C34.18355942 21.42831909 33.5177536 20.72187256 32.83177185 19.99401855 C27.49433057 14.89425851 20.28060252 13.79334524 13.1484375 13.52734375 C2.53442641 13.91673351 -3.91039289 18.71117414 -11.2265625 26.02734375 C-12.82267232 26.1206808 -14.42289678 26.14479747 -16.02172852 26.14086914 C-17.04271133 26.14079361 -18.06369415 26.14071808 -19.11561584 26.14064026 C-20.2260173 26.13547897 -21.33641876 26.13031769 -22.48046875 26.125 C-23.61105209 26.12358505 -24.74163544 26.1221701 -25.90647888 26.12071228 C-29.53403315 26.11509394 -33.16152674 26.10253833 -36.7890625 26.08984375 C-39.24153557 26.08483111 -41.6940096 26.0802678 -44.14648438 26.07617188 C-50.17321954 26.06596745 -56.19982272 26.04639561 -62.2265625 26.02734375 C-62.2265625 18.43734375 -62.2265625 10.84734375 -62.2265625 3.02734375 C-59.10294243 4.58915379 -57.04734826 5.88210077 -54.4140625 8.02734375 C-47.34208203 13.34754924 -39.85382413 13.88786345 -31.2265625 13.02734375 C-25.28014513 11.65776074 -21.37383106 9.33847744 -17.18994141 4.93530273 C-11.7495077 0.01520784 -7.11636574 -0.12610308 0 0 Z " fill="#010101" transform="translate(263.2265625,217.97265625)"/>
<path d="M0 0 C0.78866455 0.00950684 1.5773291 0.01901367 2.38989258 0.02880859 C8.85796744 0.25916926 13.88345221 1.62905227 19.125 5.5625 C19.56508392 6.04041992 20.00516785 6.51833984 20.45858765 7.01074219 C24.89081838 11.55653129 28.44818574 12.27499127 34.6938324 12.39474487 C35.77326614 12.38565094 36.85269989 12.37655701 37.96484375 12.3671875 C39.08693741 12.38089386 40.20903107 12.39460022 41.36512756 12.40872192 C44.93132845 12.44596189 48.49613257 12.44231064 52.0625 12.4375 C54.48765192 12.45563077 56.91278543 12.47643463 59.33789062 12.5 C65.26706369 12.55179492 71.19562141 12.57006732 77.125 12.5625 C74.06345568 19.08714388 67.64527765 22.80949388 61.125 25.5625 C53.42005697 27.91678815 45.25685093 27.16693438 38.125 23.5625 C34.799769 21.60648176 32.50553486 20.06938508 30.18457031 16.9777832 C25.53343352 13.30608704 21.13147412 13.78926093 15.359375 13.79296875 C14.21140442 13.7810701 13.06343384 13.76917145 11.88067627 13.75691223 C9.4532192 13.74037796 7.02564181 13.7370089 4.59814453 13.74584961 C0.90058616 13.74997148 -2.79147096 13.68499016 -6.48828125 13.61523438 C-8.85155289 13.60775085 -11.21484177 13.60436325 -13.578125 13.60546875 C-14.67529846 13.57986374 -15.77247192 13.55425873 -16.90289307 13.52787781 C-22.9515858 13.61785513 -26.28854264 14.34719038 -30.84277344 18.46606445 C-31.84555328 19.52335503 -31.84555328 19.52335503 -32.86859131 20.602005 C-37.87546886 25.49430757 -44.19603333 26.78603878 -51 27 C-59.8950691 26.64738217 -66.3090455 23.54910557 -72.875 17.5625 C-74.22048849 15.90563058 -75.55514401 14.23985975 -76.875 12.5625 C-75.9244574 12.56702431 -75.9244574 12.56702431 -74.95471191 12.57164001 C-68.33515704 12.59627846 -61.7170416 12.5719829 -55.09765625 12.51977539 C-52.63024306 12.50666807 -50.16273156 12.50587152 -47.6953125 12.51782227 C-44.13964789 12.53287649 -40.58669303 12.5030819 -37.03125 12.46484375 C-35.93510376 12.47909897 -34.83895752 12.49335419 -33.70959473 12.50804138 C-28.07663879 12.40251478 -24.66454199 11.95735543 -20.36181641 8.15625 C-19.77477936 7.54257568 -19.18774231 6.92890137 -18.58291626 6.29663086 C-13.38329331 1.01719953 -7.14537031 -0.1393397 0 0 Z " fill="#1C4B5A" transform="translate(276.875,205.4375)"/>
<path d="M0 0 C0 16.83 0 33.66 0 51 C-10.81300622 49.79855486 -14.7433869 47.89719997 -21.51953125 40.09765625 C-26.2184052 33.43988498 -25.76641491 25.79460269 -25 18 C-22.81315082 10.56895909 -17.41343478 5.99562662 -11 2 C-6.80394177 0.14405117 -4.71771149 0 0 0 Z " fill="#8EA3AF" transform="translate(200,294)"/>
<path d="M0 0 C23.76 0 47.52 0 72 0 C68 2 68 2 66.140625 2.82421875 C62.20188263 4.62269409 59.47764264 6.44860959 56.49414062 9.60180664 C51.32470396 14.19202069 46.49875405 13.90294279 39.84375 13.68359375 C38.12943787 13.6687368 38.12943787 13.6687368 36.38049316 13.65357971 C32.75232262 13.61458765 29.12724645 13.52678533 25.5 13.4375 C23.03129388 13.40236692 20.56254005 13.37043144 18.09375 13.34179688 C12.06131897 13.26487371 6.03118296 13.14418812 0 13 C0 8.71 0 4.42 0 0 Z " fill="#010101" transform="translate(200,205)"/>
<path d="M0 0 C23.76 0 47.52 0 72 0 C72 4.29 72 8.58 72 13 C64.92008615 13.1987237 57.84181783 13.34338622 50.75976562 13.43945312 C48.35420429 13.47952427 45.94883584 13.53399875 43.54394531 13.60351562 C40.07308246 13.70128641 36.60480778 13.74609182 33.1328125 13.78125 C31.53688766 13.84318542 31.53688766 13.84318542 29.90872192 13.90637207 C22.41092922 13.91081244 18.60175838 11.94814943 13.09130859 6.88427734 C10.55141467 4.59582283 8.12852191 3.50108367 4.875 2.5 C3.94429688 2.2009375 3.01359375 1.901875 2.0546875 1.59375 C1.37664062 1.3978125 0.69859375 1.201875 0 1 C0 0.67 0 0.34 0 0 Z " fill="#010101" transform="translate(282,205)"/>
<path d="M0 0 C16.83 0 33.66 0 51 0 C47.80328828 6.39342344 43.41006954 9.68639507 36.8125 12.375 C28.22453065 15.14379886 20.94359097 15.27730291 12.6875 11.4375 C7.70272066 8.68637343 3.52230897 5.50210619 0 1 C0 0.67 0 0.34 0 0 Z " fill="#1D4D5D" transform="translate(200,320)"/>
<path d="M0 0 C16.83 0 33.66 0 51 0 C47.80328828 6.39342344 43.41006954 9.68639507 36.8125 12.375 C28.22453065 15.14379886 20.94359097 15.27730291 12.6875 11.4375 C7.70272066 8.68637343 3.52230897 5.50210619 0 1 C0 0.67 0 0.34 0 0 Z " fill="#1D4E5D" transform="translate(200,269)"/>
<path d="M0 0 C16.83 0 33.66 0 51 0 C47.84499804 6.31000391 42.27561574 10.41285711 35.6875 12.9375 C25.99392931 15.59650029 18.47978474 14.4380881 9.69140625 9.703125 C5.14781756 6.8279368 2.44169937 4.88339875 0 0 Z " fill="#1D4E5D" transform="translate(303,269)"/>
<path d="M0 0 C4.03245774 2.15355715 7.537956 4.87457462 10.5234375 8.34765625 C10.5234375 9.00765625 10.5234375 9.66765625 10.5234375 10.34765625 C-5.9765625 10.34765625 -22.4765625 10.34765625 -39.4765625 10.34765625 C-32.71566422 2.45994159 -32.71566422 2.45994159 -28.7890625 0.47265625 C-28.04269531 0.08335937 -27.29632813 -0.3059375 -26.52734375 -0.70703125 C-18.14949155 -4.56882217 -8.34562189 -3.41411804 0 0 Z " fill="#608491" transform="translate(291.4765625,233.65234375)"/>
<path d="M0 0 C5.37608887 2.78866642 8.09483636 5.11854545 12 10 C-4.83 10 -21.66 10 -39 10 C-28.35644352 -2.41748257 -15.38457948 -7.19093007 0 0 Z " fill="#608491" transform="translate(291,285)"/>
<path d="M0 0 C2.79115745 2.20696171 5.28008323 4.5051641 7.6875 7.125 C7.6875 7.455 7.6875 7.785 7.6875 8.125 C-8.8125 8.125 -25.3125 8.125 -42.3125 8.125 C-35.54654255 0.23138298 -35.54654255 0.23138298 -31.1875 -1.75 C-30.35992187 -2.13929688 -29.53234375 -2.52859375 -28.6796875 -2.9296875 C-18.95678919 -6.81242907 -8.97114366 -5.07800585 0 0 Z " fill="#1E5060" transform="translate(294.3125,260.875)"/>
<path d="M0 0 C16.5 0 33 0 50 0 C48.01622802 3.96754397 47.2707195 4.83772985 43.75 7.125 C43.00234375 7.62257813 42.2546875 8.12015625 41.484375 8.6328125 C33.66262267 12.93723595 24.71306126 13.08282494 16 12 C12.24179471 10.83253771 9.21644203 9.24701539 6 7 C4.989375 6.29875 3.97875 5.5975 2.9375 4.875 C1 3 1 3 0 0 Z " fill="#5E828F" transform="translate(201,295)"/>
<path d="M0 0 C16.5 0 33 0 50 0 C46.61307738 5.64487103 46.61307738 5.64487103 43.125 7.6875 C42.46757812 8.08324219 41.81015625 8.47898438 41.1328125 8.88671875 C32.84443489 13.2130697 22.99149329 13.33312619 13.91015625 11.3125 C8.57459129 9.33940972 3.74491308 6.34013106 0 2 C0 1.34 0 0.68 0 0 Z " fill="#5E828F" transform="translate(201,244)"/>
<path d="M0 0 C16.5 0 33 0 50 0 C43.23534884 7.89209302 43.23534884 7.89209302 39.875 9.375 C39.23304688 9.67148438 38.59109375 9.96796875 37.9296875 10.2734375 C29.88573338 13.30213278 19.55674549 13.36219333 11.5 10.375 C7.14269113 8.33478849 3.16123561 5.66368366 0 2 C0 1.34 0 0.68 0 0 Z " fill="#5F8390" transform="translate(304,244)"/>
<path d="M0 0 C6.06819975 2.83865172 8.06227347 5.60520446 12.796875 11.12890625 C-3.703125 11.12890625 -20.203125 11.12890625 -37.203125 11.12890625 C-31.57781848 4.37853842 -31.57781848 4.37853842 -27.515625 2.31640625 C-26.74863281 1.91808594 -25.98164063 1.51976562 -25.19140625 1.109375 C-24.53527344 0.78582031 -23.87914062 0.46226562 -23.203125 0.12890625 C-17.20746092 -2.86892579 -6.36035017 -1.72970499 0 0 Z " fill="#1E5161" transform="translate(289.203125,206.87109375)"/>
<path d="M0 0 C3.125 2.125 3.125 2.125 5 4 C5 4.66 5 5.32 5 6 C-0.2589378 9.22453966 -4.37032594 9.40241482 -10.3359375 9.29296875 C-11.21528961 9.28872391 -12.09464172 9.28447906 -13.00064087 9.28010559 C-15.79241342 9.26339461 -18.58344788 9.22575692 -21.375 9.1875 C-23.27472911 9.17244334 -25.17446961 9.15875666 -27.07421875 9.14648438 C-31.71642758 9.11351598 -36.35808891 9.06178653 -41 9 C-30.32067732 -4.1562076 -15.43504851 -8.29598586 0 0 Z " fill="#1E505F" transform="translate(293,311)"/>
<path d="M0 0 C1.65 0 3.3 0 5 0 C5.33 3.3 5.66 6.6 6 10 C6.66 9.67 7.32 9.34 8 9 C12.74275933 8.53349908 14.92860438 8.33037774 19 10.875 C21.80989899 15.26546717 22.0151866 18.92406701 21 24 C19 27.125 19 27.125 16 29 C13.19288113 29.40959906 10.87147275 29.23157038 8 29 C7.01 29 6.02 29 5 29 C3.35 29 1.7 29 0 29 C0 19.43 0 9.86 0 0 Z " fill="#EBEDED" transform="translate(216,44)"/>
<path d="M0 0 C1.32 0 2.64 0 4 0 C4 9.57 4 19.14 4 29 C2.68 29 1.36 29 0 29 C-0.33 28.34 -0.66 27.68 -1 27 C-1.99 27.66 -2.98 28.32 -4 29 C-7.375 29.4375 -7.375 29.4375 -11 29 C-13.875 26.5625 -13.875 26.5625 -16 24 C-16.33 23.67 -16.66 23.34 -17 23 C-17.58968059 15.92383292 -17.58968059 15.92383292 -15.125 12.0625 C-11.77981 8.81569794 -9.59041824 8.86447589 -4.97265625 8.76953125 C-3 9 -3 9 0 11 C0 7.37 0 3.74 0 0 Z " fill="#F4F5F5" transform="translate(148,44)"/>
<path d="M0 0 C0.99 0.66 1.98 1.32 3 2 C3 1.34 3 0.68 3 0 C4.32 0 5.64 0 7 0 C7 6.6 7 13.2 7 20 C4.33333333 20 1.66666667 20 -1 20 C-2.11375 20.103125 -3.2275 20.20625 -4.375 20.3125 C-8 20 -8 20 -10.875 17.5625 C-11.57625 16.716875 -12.2775 15.87125 -13 15 C-13.33 14.67 -13.66 14.34 -14 14 C-14.4781408 9.29828209 -14.72931068 6.32594144 -11.6875 2.5625 C-7.63051013 -1.30579267 -5.27384382 -1.20858921 0 0 Z " fill="#EEF0F1" transform="translate(169,53)"/>
<path d="M0 0 C0.99 0.66 1.98 1.32 3 2 C3 1.34 3 0.68 3 0 C4.32 0 5.64 0 7 0 C7 6.6 7 13.2 7 20 C4.33333333 20 1.66666667 20 -1 20 C-2.11375 20.103125 -3.2275 20.20625 -4.375 20.3125 C-8 20 -8 20 -10.875 17.625 C-13.60424968 14.25357392 -14.19891448 12.8640547 -13.875 8.625 C-13.43677443 5.26527065 -13.12652459 4.15719721 -10.9375 1.4375 C-6.9079999 -0.53438303 -4.46817575 -0.43240411 0 0 Z " fill="#F5F6F6" transform="translate(206,53)"/>
<path d="M0 0 C15.51 0 31.02 0 47 0 C28.85669782 13.60747664 28.85669782 13.60747664 18.52734375 12.62890625 C11.36114515 10.84566363 5.26147311 7.1230133 0 2 C0 1.34 0 0.68 0 0 Z " fill="#608491" transform="translate(201,346)"/>
<path d="M0 0 C0.99 0.33 1.98 0.66 3 1 C4.1875 4.0625 4.1875 4.0625 5 7 C7.97 7.33 10.94 7.66 14 8 C13 12 13 12 11.44921875 13.45703125 C9.78509737 14.92717553 9.78509737 14.92717553 9.70703125 17.26171875 C9.75923828 18.46248047 9.75923828 18.46248047 9.8125 19.6875 C9.83957031 20.49574219 9.86664063 21.30398437 9.89453125 22.13671875 C9.94673828 23.05904297 9.94673828 23.05904297 10 24 C9.01 24.33 8.02 24.66 7 25 C6.401875 24.67 5.80375 24.34 5.1875 24 C1.19474897 22.17474239 -2.91241987 23.96929553 -7 25 C-7.03867188 23.98679687 -7.03867188 23.98679687 -7.078125 22.953125 C-7.29799455 17.29613659 -7.29799455 17.29613659 -10.0625 12.5625 C-10.701875 12.046875 -11.34125 11.53125 -12 11 C-12 10.01 -12 9.02 -12 8 C-7.545 7.505 -7.545 7.505 -3 7 C-2.690625 6.030625 -2.38125 5.06125 -2.0625 4.0625 C-1 1 -1 1 0 0 Z " fill="#1E343C" transform="translate(198,104)"/>
<path d="M0 0 C2.45703125 1.19140625 2.45703125 1.19140625 4.8125 2.5625 C5.60269531 3.01753906 6.39289063 3.47257812 7.20703125 3.94140625 C7.79871094 4.29074219 8.39039062 4.64007813 9 5 C8.01 5.33 7.02 5.66 6 6 C4.906875 5.34 3.81375 4.68 2.6875 4 C0.14512316 2.47669697 -0.82561693 2.00379094 -3.875 1.9375 C-8.23580452 3.42017354 -12.06402104 5.629666 -16 8 C-14.42065361 8.98558449 -12.83634827 9.96322541 -11.25 10.9375 C-10.36828125 11.48277344 -9.4865625 12.02804688 -8.578125 12.58984375 C-5.44952675 14.42178031 -5.44952675 14.42178031 -2 15 C0.53029831 13.77678151 2.81197673 12.53352516 5.1875 11.0625 C11.93572621 7 11.93572621 7 13 7 C13 9.64 13 12.28 13 15 C10.80269616 16.37557241 8.59510062 17.72463252 6.375 19.0625 C5.75753906 19.45244141 5.14007813 19.84238281 4.50390625 20.24414062 C1.38880855 22.09680399 -0.40132649 23.01209441 -4.09375 22.9375 C-7.2765041 21.91080513 -9.97427631 20.60010992 -12.875 18.9375 C-13.84179688 18.38964844 -14.80859375 17.84179688 -15.8046875 17.27734375 C-16.52914062 16.85582031 -17.25359375 16.43429688 -18 16 C-18 16.99 -18 17.98 -18 19 C-17.26394531 19.26554687 -16.52789062 19.53109375 -15.76953125 19.8046875 C-13 21 -13 21 -10.88671875 22.5703125 C-8.14422284 24.50905739 -6.34314679 25.45049909 -3 26 C2.7661153 24.4112201 7.93679573 21.09697234 13 18 C13.29296875 21.296875 13.29296875 21.296875 13 25 C10.98828125 26.890625 10.98828125 26.890625 8.3125 28.25 C7.44238281 28.70890625 6.57226562 29.1678125 5.67578125 29.640625 C4.79277344 30.08921875 3.90976563 30.5378125 3 31 C2.14792969 31.57234375 1.29585937 32.1446875 0.41796875 32.734375 C-2 34 -2 34 -3.93530273 33.69458008 C-7.27682583 32.57046595 -10.22478236 30.71758233 -13.25 28.9375 C-13.8996875 28.56044922 -14.549375 28.18339844 -15.21875 27.79492188 C-16.81505091 26.86765885 -18.40787529 25.93441544 -20 25 C-20 24.34 -20 23.68 -20 23 C-16.23425193 24.38917289 -12.98832015 26.17021132 -9.5625 28.25 C-5.43660086 30.59480023 -5.43660086 30.59480023 -0.8125 30.6875 C0.115625 30.130625 1.04375 29.57375 2 29 C2.70511719 28.60425781 3.41023438 28.20851563 4.13671875 27.80078125 C6.18269837 26.61175644 8.14424562 25.46953139 10 24 C10 23.34 10 22.68 10 22 C9.26394531 22.433125 8.52789062 22.86625 7.76953125 23.3125 C6.79371094 23.869375 5.81789063 24.42625 4.8125 25 C3.84957031 25.556875 2.88664062 26.11375 1.89453125 26.6875 C-1.23072408 28.10461982 -2.6359973 28.56742214 -6 28 C-8.54866746 26.74389106 -10.89877269 25.47160306 -13.3125 24 C-13.95767578 23.6184375 -14.60285156 23.236875 -15.26757812 22.84375 C-16.85083481 21.90552382 -18.42623205 20.95405689 -20 20 C-20 17.69 -20 15.38 -20 13 C-15.3607723 13.85143473 -11.74075744 16.4137848 -7.75390625 18.8203125 C-4.48939663 20.21872655 -3.32184459 20.13655647 0 19 C1.94954399 18.11045397 3.86701124 17.14792092 5.75 16.125 C6.71421875 15.61195312 7.6784375 15.09890625 8.671875 14.5703125 C11.28893787 13.14930013 11.28893787 13.14930013 12 10 C11.05898437 10.60070313 10.11796875 11.20140625 9.1484375 11.8203125 C7.89128212 12.58961654 6.63343239 13.35778669 5.375 14.125 C4.75753906 14.52332031 4.14007813 14.92164063 3.50390625 15.33203125 C0.36494891 17.21540565 -1.40366435 18.10496725 -5.0625 17.4609375 C-8.22627716 15.88746322 -11.32128368 14.27944951 -14.375 12.5 C-15.43460937 11.8915625 -16.49421875 11.283125 -17.5859375 10.65625 C-18.38257812 10.1096875 -19.17921875 9.563125 -20 9 C-20 8.34 -20 7.68 -20 7 C-17.61298157 5.62783972 -15.21744946 4.27756021 -12.8125 2.9375 C-12.13896484 2.54755859 -11.46542969 2.15761719 -10.77148438 1.75585938 C-6.84464658 -0.40869024 -4.42346663 -1.73352071 0 0 Z " fill="#E2E5E6" transform="translate(108,44)"/>
<path d="M0 0 C2.64 1.98 5.28 3.96 8 6 C13.3691712 9.02440656 19.00619406 10.69226052 25 12 C20.74610731 15.62682484 16.17824603 18.43034704 11.375 21.25 C10.611875 21.70890625 9.84875 22.1678125 9.0625 22.640625 C8.32773438 23.07375 7.59296875 23.506875 6.8359375 23.953125 C6.17126465 24.34661133 5.5065918 24.74009766 4.82177734 25.14550781 C3 26 3 26 0 26 C0 17.42 0 8.84 0 0 Z " fill="#020303" transform="translate(200,347)"/>
<path d="M0 0 C1.32 0 2.64 0 4 0 C4.33 4.95 4.66 9.9 5 15 C5.86625 14.01 6.7325 13.02 7.625 12 C10.12345413 9.46585366 10.66854671 9.03682814 14.375 8.625 C15.24125 8.74875 16.1075 8.8725 17 9 C16.3503125 9.68835938 16.3503125 9.68835938 15.6875 10.390625 C15.130625 11.00421875 14.57375 11.6178125 14 12.25 C13.443125 12.85328125 12.88625 13.4565625 12.3125 14.078125 C10.62402557 16.162653 10.62402557 16.162653 11 20 C12.51402887 22.17643023 12.51402887 22.17643023 14.5 24.1875 C18 27.93055556 18 27.93055556 18 29 C15.375 29.5 15.375 29.5 12 29 C10.16702468 27.07666674 8.75324592 25.06744741 7.296875 22.84765625 C6.12240266 20.86321762 6.12240266 20.86321762 4 20 C4 22.97 4 25.94 4 29 C2.68 29 1.36 29 0 29 C0 19.43 0 9.86 0 0 Z " fill="#F3F4F5" transform="translate(282,44)"/>
<path d="M0 0 C0.99 0.66 1.98 1.32 3 2 C2.67 2.99 2.34 3.98 2 5 C-1.63 5 -5.26 5 -9 5 C-9 8.3 -9 11.6 -9 15 C-5.37 15 -1.74 15 2 15 C2 16.32 2 17.64 2 19 C-1.71277738 20.23759246 -5.14187846 20.55653215 -9 20 C-12.44312714 17.8755173 -13.71617547 16.85147359 -15 13 C-15.49584053 8.62007531 -15.25480396 6.46714059 -13.125 2.5625 C-9.58674694 -1.2502727 -4.83010024 -0.8514075 0 0 Z " fill="#F0F2F2" transform="translate(276,53)"/>
<path d="M0 0 C9.9 0 19.8 0 30 0 C27.14158124 2.85841876 24.56755652 4.67244719 21.125 6.75 C20.09632813 7.38421875 19.06765625 8.0184375 18.0078125 8.671875 C14.64593316 10.1563412 13.41072411 10.20039021 10 9 C5.41225757 6.3784329 3.42067376 4.2758422 0 0 Z " fill="#5D808C" transform="translate(303,295)"/>
<path d="M0 0 C3.75566081 0.06816081 3.75566081 0.06816081 6.0625 2.375 C6.3925 3.035 6.7225 3.695 7.0625 4.375 C3.73715243 5.48344919 1.44067425 5.21954356 -1.9375 4.375 C-1.9375 5.035 -1.9375 5.695 -1.9375 6.375 C-1.37160156 6.65214844 -0.80570312 6.92929687 -0.22265625 7.21484375 C0.51082031 7.57707031 1.24429687 7.93929687 2 8.3125 C3.09634766 8.85197266 3.09634766 8.85197266 4.21484375 9.40234375 C6.0625 10.375 6.0625 10.375 7.0625 11.375 C7.32327823 14.37394961 7.49981576 16.55503295 6.0625 19.25 C2.86540713 21.04836474 -0.36130803 20.95613119 -3.9375 20.375 C-5.9375 18.875 -5.9375 18.875 -6.9375 17.375 C-6.4425 15.89 -6.4425 15.89 -5.9375 14.375 C-4.9475 14.375 -3.9575 14.375 -2.9375 14.375 C-2.9375 15.035 -2.9375 15.695 -2.9375 16.375 C-0.9575 16.375 1.0225 16.375 3.0625 16.375 C2.7325 15.385 2.4025 14.395 2.0625 13.375 C-0.26421865 12.35970459 -2.5978447 11.36011802 -4.9375 10.375 C-6.9375 7.375 -6.9375 7.375 -6.6875 4.8125 C-5.40254913 0.63640967 -4.37457926 0.4166266 0 0 Z " fill="#F3F4F5" transform="translate(306.9375,52.625)"/>
<path d="M0 0 C1.32 0 2.64 0 4 0 C4 1.98 4 3.96 4 6 C5.32 6 6.64 6 8 6 C8 6.99 8 7.98 8 9 C6.68 9 5.36 9 4 9 C4.33 12.96 4.66 16.92 5 21 C6.32 21.33 7.64 21.66 9 22 C9 23.32 9 24.64 9 26 C3.375 26.25 3.375 26.25 0 24 C-0.29296875 20.7421875 -0.29296875 20.7421875 -0.1875 16.875 C-0.16042969 15.59367187 -0.13335937 14.31234375 -0.10546875 12.9921875 C-0.07066406 12.00476562 -0.03585938 11.01734375 0 10 C-1.32 10 -2.64 10 -4 10 C-4 8.68 -4 7.36 -4 6 C-2.68 6 -1.36 6 0 6 C0 4.02 0 2.04 0 0 Z " fill="#F9F9F9" transform="translate(182,47)"/>
<path d="M0 0 C0.99 0 1.98 0 3 0 C3 5.61 3 11.22 3 17 C-5 17 -5 17 -7 15.875 C-8.47901666 13.10184376 -8.38601984 11.08815875 -8 8 C-6.75 6.125 -6.75 6.125 -5 5 C-3.68 5 -2.36 5 -1 5 C-0.67 3.35 -0.34 1.7 0 0 Z " fill="#E5E7E8" transform="translate(167,177)"/>
<path d="M0 0 C1.9375 1.625 1.9375 1.625 3 4 C2.875 7.125 2.875 7.125 2 10 C-1 12 -1 12 -4.5625 11.8125 C-8 11 -8 11 -10 8 C-9.8125 4.9375 -9.8125 4.9375 -9 2 C-5.52957297 -0.31361802 -4.08165827 -0.51020728 0 0 Z " fill="#263B43" transform="translate(206,57)"/>
<path d="M0 0 C1.875 1.125 1.875 1.125 3 3 C3.39365568 6.14924548 3.52854531 8.11909116 1.875 10.875 C-0.88090884 12.52854531 -2.85075452 12.39365568 -6 12 C-7.875 10.875 -7.875 10.875 -9 9 C-9.39365568 5.85075452 -9.52854531 3.88090884 -7.875 1.125 C-5.11909116 -0.52854531 -3.14924548 -0.39365568 0 0 Z " fill="#1F343C" transform="translate(230,57)"/>
<path d="M0 0 C3.0625 0.3125 3.0625 0.3125 4.9375 1.375 C6.70013183 4.41064371 6.43581109 6.89048172 6.0625 10.3125 C2.59207297 12.62611802 1.14415827 12.82270728 -2.9375 12.3125 C-4.875 10.6875 -4.875 10.6875 -5.9375 8.3125 C-5.64908355 3.50555913 -5.26034464 0.55961113 0 0 Z " fill="#233840" transform="translate(164.9375,56.6875)"/>
<path d="M0 0 C1.875 1.125 1.875 1.125 3 3 C3.39365568 6.14924548 3.52854531 8.11909116 1.875 10.875 C-0.88090884 12.52854531 -2.85075452 12.39365568 -6 12 C-7.875 10.875 -7.875 10.875 -9 9 C-9.39365568 5.85075452 -9.52854531 3.88090884 -7.875 1.125 C-5.11909116 -0.52854531 -3.14924548 -0.39365568 0 0 Z " fill="#21363E" transform="translate(145,57)"/>
<path d="M0 0 C1.32 0 2.64 0 4 0 C4.33 0.66 4.66 1.32 5 2 C5.66 1.34 6.32 0.68 7 0 C8.32 0 9.64 0 11 0 C11 1.32 11 2.64 11 4 C10.195625 4.28875 9.39125 4.5775 8.5625 4.875 C5.8673532 5.73262568 5.8673532 5.73262568 5 8 C4.77141886 10.0374763 4.58975722 12.08040303 4.4375 14.125 C4.35371094 15.22070312 4.26992187 16.31640625 4.18359375 17.4453125 C4.12300781 18.28835937 4.06242188 19.13140625 4 20 C2.68 20 1.36 20 0 20 C0 13.4 0 6.8 0 0 Z " fill="#FBFCFC" transform="translate(240,53)"/>
<path d="M0 0 C0.99 0 1.98 0 3 0 C3.67413211 1.91405367 4.3390332 3.83136026 5 5.75 C5.37125 6.81734375 5.7425 7.8846875 6.125 8.984375 C7 12 7 12 7 16 C6.34 16 5.68 16 5 16 C4.67 15.34 4.34 14.68 4 14 C1.47266765 13.34444881 1.47266765 13.34444881 -1 13 C-1.33 13.99 -1.66 14.98 -2 16 C-2.66 16 -3.32 16 -4 16 C-3.47606294 10.13190493 -2.23891142 5.45126259 0 0 Z " fill="#F3F4F4" transform="translate(267,153)"/>
<path d="M0 0 C1.8125 1.375 1.8125 1.375 3 3 C3 3.66 3 4.32 3 5 C1.68 4.67 0.36 4.34 -1 4 C-1 3.34 -1 2.68 -1 2 C-3.6273026 2.99135641 -3.6273026 2.99135641 -6 5 C-6.41725678 8.62599422 -6.41725678 8.62599422 -6 12 C-4.35 12.33 -2.7 12.66 -1 13 C-0.67 12.01 -0.34 11.02 0 10 C-0.99 10 -1.98 10 -3 10 C-3 9.34 -3 8.68 -3 8 C-1.02 8 0.96 8 3 8 C3 10.64 3 13.28 3 16 C-4.2 17.44 -4.2 17.44 -7.5 15.625 C-9.70101318 11.77322694 -9.78695692 8.33223758 -9 4 C-6.53869885 0.26246862 -4.43251892 -0.79558032 0 0 Z " fill="#E5E8E9" transform="translate(119,153)"/>
<path d="M0 0 C3.51654217 1.02923185 6.48360094 2.2361802 9.5625 4.1875 C13.40612477 6.21413851 14.02831611 6.19752287 18 5 C20.41443549 3.75919355 22.69331045 2.3714649 25.01171875 0.9609375 C25.99591797 0.48527344 25.99591797 0.48527344 27 0 C29 1 29 1 30 3 C17.23967351 11.61736334 17.23967351 11.61736334 11.86816406 10.59375 C7.43208076 8.76600752 3.70511459 6.0104056 0 3 C0 2.01 0 1.02 0 0 Z " fill="#2C4048" transform="translate(90,60)"/>
<path d="M0 0 C2.3431213 0.25561323 4.67843403 0.59270772 7 1 C8.20272819 3.40545638 8.10071472 4.94996953 8.0625 7.625 C8.05347656 8.44226563 8.04445312 9.25953125 8.03515625 10.1015625 C8.02355469 10.72804687 8.01195312 11.35453125 8 12 C6.52093108 12.02689216 5.04172517 12.04634621 3.5625 12.0625 C2.32693359 12.07990234 2.32693359 12.07990234 1.06640625 12.09765625 C-1 12 -1 12 -2 11 C-2.125 8.5 -2.125 8.5 -2 6 C-1 5 -1 5 2.0625 4.9375 C3.5165625 4.9684375 3.5165625 4.9684375 5 5 C4.67 4.34 4.34 3.68 4 3 C2.02 3.33 0.04 3.66 -2 4 C-1.34 2.68 -0.68 1.36 0 0 Z " fill="#E1E3E4" transform="translate(245,182)"/>
<path d="M0 0 C1.8125 1.8125 1.8125 1.8125 3 4 C3 4.99 3 5.98 3 7 C0.36 7.33 -2.28 7.66 -5 8 C-1.98968256 8.93423645 -1.13349732 9.04449911 2 8 C1.34 9.32 0.68 10.64 0 12 C-6.875 11.125 -6.875 11.125 -8 10 C-8.37086093 4.1589404 -8.37086093 4.1589404 -8 2 C-4.77856724 -0.14762184 -3.7404533 -0.561068 0 0 Z " fill="#DCDFE1" transform="translate(209,182)"/>
<path d="M0 0 C2 2 2 2 2 6 C-0.64 6 -3.28 6 -6 6 C-6 6.99 -6 7.98 -6 9 C-3.36 8.67 -0.72 8.34 2 8 C0.8125 10 0.8125 10 -1 12 C-3.5 12.5 -3.5 12.5 -6 12 C-8.2855347 9.87208838 -8.92303658 8.52591672 -9.375 5.4375 C-9 3 -9 3 -7.875 1.1875 C-5.16554166 -0.52849028 -3.13704316 -0.333728 0 0 Z " fill="#D3D7D9" transform="translate(161,158)"/>
<path d="M0 0 C2 2 2 2 2.1953125 4.3828125 C2.17210937 5.28773438 2.14890625 6.19265625 2.125 7.125 C2.10695312 8.03507813 2.08890625 8.94515625 2.0703125 9.8828125 C2.04710937 10.58148438 2.02390625 11.28015625 2 12 C-4.0546875 12.1953125 -4.0546875 12.1953125 -6 12 C-6.66 11.34 -7.32 10.68 -8 10 C-7.46428571 6.46428571 -7.46428571 6.46428571 -6 5 C-4.00041636 4.95919217 -1.99954746 4.95745644 0 5 C-0.33 4.34 -0.66 3.68 -1 3 C-2.98 3.33 -4.96 3.66 -7 4 C-7 3.01 -7 2.02 -7 1 C-4.48718205 -0.25640898 -2.78302919 -0.20872719 0 0 Z " fill="#EEEFF0" transform="translate(181,182)"/>
<path d="M0 0 C2 2 2 2 2 6 C-0.64 6 -3.28 6 -6 6 C-6 6.99 -6 7.98 -6 9 C-3.36 8.67 -0.72 8.34 2 8 C1.01 9.32 0.02 10.64 -1 12 C-3.875 11.6875 -3.875 11.6875 -7 11 C-9.15502531 7.76746204 -9.46856135 6.74849077 -9 3 C-6.73157826 -0.65467947 -4.03373275 -0.4291205 0 0 Z " fill="#A7B0B3" transform="translate(244,158)"/>
<path d="M0 0 C3 0.25 3 0.25 5 2.25 C5 3.57 5 4.89 5 6.25 C2.36 6.25 -0.28 6.25 -3 6.25 C-2.67 6.91 -2.34 7.57 -2 8.25 C0.31 8.25 2.62 8.25 5 8.25 C4.01 9.57 3.02 10.89 2 12.25 C-0.875 12 -0.875 12 -4 11.25 C-5.95231826 8.87326472 -6.04095569 7.68003475 -5.75 4.625 C-4.61880326 1.04287699 -3.76401145 0.31366762 0 0 Z " fill="#96A0A4" transform="translate(130,157.75)"/>
<path d="M0 0 C2.31 0 4.62 0 7 0 C8.20272819 2.40545638 8.10071472 3.94996953 8.0625 6.625 C8.05347656 7.44226563 8.04445312 8.25953125 8.03515625 9.1015625 C8.02355469 9.72804687 8.01195312 10.35453125 8 11 C1.9453125 11.9765625 1.9453125 11.9765625 0 12 C-0.66 11.34 -1.32 10.68 -2 10 C-1.46428571 6.46428571 -1.46428571 6.46428571 0 5 C1.99958364 4.95919217 4.00045254 4.95745644 6 5 C5.67 4.34 5.34 3.68 5 3 C3.02 3 1.04 3 -1 3 C-0.67 2.01 -0.34 1.02 0 0 Z " fill="#F2F3F3" transform="translate(182,158)"/>
<path d="M0 0 C-0.109375 1.76171875 -0.109375 1.76171875 -1 4 C-3.765625 5.95703125 -3.765625 5.95703125 -7.25 7.8125 C-8.38953125 8.43769531 -9.5290625 9.06289063 -10.703125 9.70703125 C-14.22544739 11.08841598 -15.50281613 11.25025798 -19 10 C-21.44967679 8.82017501 -23.67088852 7.41573443 -26 6 C-24.375 4.8125 -24.375 4.8125 -22 4 C-21.030625 4.495 -20.06125 4.99 -19.0625 5.5 C-16.20138973 7.29356139 -16.20138973 7.29356139 -13.6875 6.5 C-12.04336798 5.58234492 -10.39995872 4.66339147 -8.7578125 3.7421875 C-7.95085937 3.29101562 -7.14390625 2.83984375 -6.3125 2.375 C-5.54550781 1.92898437 -4.77851562 1.48296875 -3.98828125 1.0234375 C-2 0 -2 0 0 0 Z " fill="#293E45" transform="translate(120,54)"/>
<path d="M0 0 C8.49609375 -0.09765625 8.49609375 -0.09765625 11 0 C12 1 12 1 12.09765625 3.50390625 C12.08605469 4.51324219 12.07445312 5.52257812 12.0625 6.5625 C12.05347656 7.57441406 12.04445312 8.58632812 12.03515625 9.62890625 C12.02355469 10.41136719 12.01195312 11.19382813 12 12 C11.34 12 10.68 12 10 12 C10 8.7 10 5.4 10 2 C9.01 2.495 9.01 2.495 8 3 C7.53348793 5.12576782 7.53348793 5.12576782 7.375 7.5625 C7.30023438 8.38878906 7.22546875 9.21507812 7.1484375 10.06640625 C7.09945312 10.70449219 7.05046875 11.34257812 7 12 C6.34 12 5.68 12 5 12 C5 8.7 5 5.4 5 2 C4.01 2.495 4.01 2.495 3 3 C2.53348793 5.12576782 2.53348793 5.12576782 2.375 7.5625 C2.30023438 8.38878906 2.22546875 9.21507812 2.1484375 10.06640625 C2.09945312 10.70449219 2.05046875 11.34257812 2 12 C1.34 12 0.68 12 0 12 C0 8.04 0 4.08 0 0 Z " fill="#F6F7F7" transform="translate(186,182)"/>
<path d="M0 0 C6.8359375 -0.1953125 6.8359375 -0.1953125 9 0 C11 2 11 2 11.1953125 4.3828125 C11.17210937 5.28773438 11.14890625 6.19265625 11.125 7.125 C11.10695312 8.03507813 11.08890625 8.94515625 11.0703125 9.8828125 C11.04710937 10.58148438 11.02390625 11.28015625 11 12 C10.01 12 9.02 12 8 12 C7.67 9.03 7.34 6.06 7 3 C6.01 3 5.02 3 4 3 C3.67 5.97 3.34 8.94 3 12 C2.01 12 1.02 12 0 12 C0 8.04 0 4.08 0 0 Z " fill="#DCDFE1" transform="translate(145,182)"/>
<path d="M0 0 C1.32 0 2.64 0 4 0 C4 6.6 4 13.2 4 20 C2.68 20 1.36 20 0 20 C0 13.4 0 6.8 0 0 Z " fill="#FCFDFD" transform="translate(254,53)"/>
<path d="M0 0 C3.3 0 6.6 0 10 0 C10 0.99 10 1.98 10 3 C7.36 3 4.72 3 2 3 C2 4.65 2 6.3 2 8 C4.31 8 6.62 8 9 8 C9 8.66 9 9.32 9 10 C7.02 10 5.04 10 3 10 C3 12.31 3 14.62 3 17 C2.01 17 1.02 17 0 17 C0 11.39 0 5.78 0 0 Z " fill="#E1E4E5" transform="translate(118,177)"/>
<path d="M0 0 C0.33 0.66 0.66 1.32 1 2 C1.99 2.66 2.98 3.32 4 4 C4 4.66 4 5.32 4 6 C2.02 6 0.04 6 -2 6 C-2 6.66 -2 7.32 -2 8 C-1.01 8 -0.02 8 1 8 C0.67 9.32 0.34 10.64 0 12 C-4.875 11.125 -4.875 11.125 -6 10 C-6.46740859 3.6899841 -6.46740859 3.6899841 -4.6875 1.0625 C-3 0 -3 0 0 0 Z " fill="#2C4048" transform="translate(118,155)"/>
<path d="M0 0 C0.33 0 0.66 0 1 0 C1 1.65 1 3.3 1 5 C-1.24179377 6.36965208 -3.49172338 7.72052808 -5.75 9.0625 C-6.70132813 9.64741211 -6.70132813 9.64741211 -7.671875 10.24414062 C-12.47890625 13.07327881 -12.47890625 13.07327881 -15 12.71875 C-18.29579706 11.53432293 -21.2425292 9.70713983 -24.25 7.9375 C-24.8996875 7.56044922 -25.549375 7.18339844 -26.21875 6.79492188 C-27.81505091 5.86765885 -29.40787529 4.93441544 -31 4 C-31 3.34 -31 2.68 -31 2 C-27.23425193 3.38917289 -23.98832015 5.17021132 -20.5625 7.25 C-16.43660086 9.59480023 -16.43660086 9.59480023 -11.8125 9.6875 C-10.884375 9.130625 -9.95625 8.57375 -9 8 C-7.95972656 7.42378906 -7.95972656 7.42378906 -6.8984375 6.8359375 C-2.33767993 4.4029614 -2.33767993 4.4029614 0 0 Z " fill="#D6DADB" transform="translate(119,65)"/>
<path d="M0 0 C0.33 0.99 0.66 1.98 1 3 C-1.97 2.505 -1.97 2.505 -5 2 C-4.10664203 4.35785318 -4.10664203 4.35785318 -0.9375 5.125 C0.5165625 5.558125 0.5165625 5.558125 2 6 C1.125 10.875 1.125 10.875 0 12 C-2.33944736 11.71269945 -4.6739143 11.38063221 -7 11 C-7.33 10.01 -7.66 9.02 -8 8 C-5.69 8.33 -3.38 8.66 -1 9 C-1.928125 8.566875 -1.928125 8.566875 -2.875 8.125 C-5 7 -5 7 -7 5 C-7 3.68 -7 2.36 -7 1 C-4.53721199 -0.231394 -2.7204945 -0.07159196 0 0 Z " fill="#E1E4E5" transform="translate(278,182)"/>
<path d="M0 0 C0.66 0 1.32 0 2 0 C2 0.99 2 1.98 2 3 C3.32 3 4.64 3 6 3 C6 3.66 6 4.32 6 5 C4.68 5 3.36 5 2 5 C2 7.31 2 9.62 2 12 C3.32 12 4.64 12 6 12 C6 12.99 6 13.98 6 15 C3.625 15.125 3.625 15.125 1 15 C-1 13 -1 13 -1.1953125 11.0546875 C-1.09765625 8.02734375 -1.09765625 8.02734375 -1 5 C-1.66 5 -2.32 5 -3 5 C-3 4.34 -3 3.68 -3 3 C-2.01 3 -1.02 3 0 3 C0 2.01 0 1.02 0 0 Z " fill="#E6E8E9" transform="translate(232,179)"/>
<path d="M0 0 C0.66 0 1.32 0 2 0 C2 2.97 2 5.94 2 9 C3.65 8.67 5.3 8.34 7 8 C7.33 5.36 7.66 2.72 8 0 C8.66 0 9.32 0 10 0 C10 3.96 10 7.92 10 12 C7 12 4 12 1 12 C-0.26237731 9.47524538 -0.09856404 7.68799534 -0.0625 4.875 C-0.05347656 3.96492187 -0.04445312 3.05484375 -0.03515625 2.1171875 C-0.02355469 1.41851562 -0.01195312 0.71984375 0 0 Z " fill="#F1F2F3" transform="translate(132,182)"/>
<path d="M0 0 C2.97 0 5.94 0 9 0 C9 0.66 9 1.32 9 2 C7.68 2 6.36 2 5 2 C5 5.96 5 9.92 5 14 C6.32 14 7.64 14 9 14 C9 14.66 9 15.32 9 16 C6.03 16 3.06 16 0 16 C0 15.34 0 14.68 0 14 C0.99 14 1.98 14 3 14 C3 10.04 3 6.08 3 2 C2.01 2 1.02 2 0 2 C0 1.34 0 0.68 0 0 Z " fill="#F7F8F8" transform="translate(278,153)"/>
<path d="M0 0 C3.28453 0 5.84698314 0.23304995 9 1 C10 2 10 2 10.09765625 4.28515625 C10.08605469 5.20167969 10.07445312 6.11820313 10.0625 7.0625 C10.05347656 7.98160156 10.04445312 8.90070313 10.03515625 9.84765625 C10.02355469 10.55792969 10.01195312 11.26820313 10 12 C9.34 12 8.68 12 8 12 C7.67 8.7 7.34 5.4 7 2 C5.02 2.99 5.02 2.99 3 4 C2.30367785 5.95365445 2.30367785 5.95365445 2.25 8.125 C2.1675 9.40375 2.085 10.6825 2 12 C1.34 12 0.68 12 0 12 C0 8.04 0 4.08 0 0 Z " fill="#F5F6F6" transform="translate(215,182)"/>
<path d="M0 0 C3.3 0 6.6 0 10 0 C10 0.66 10 1.32 10 2 C8.68 2.33 7.36 2.66 6 3 C5.67 4.98 5.34 6.96 5 9 C5.99 9 6.98 9 8 9 C8 9.66 8 10.32 8 11 C5.03 11 2.06 11 -1 11 C-1 10.34 -1 9.68 -1 9 C-0.01 9 0.98 9 2 9 C2 6.69 2 4.38 2 2 C1.34 2 0.68 2 0 2 C0 1.34 0 0.68 0 0 Z " fill="#E6E8E9" transform="translate(167,158)"/>
<path d="M0 0 C1.66611905 -0.042721 3.33382885 -0.04063832 5 0 C6 1 6 1 6.09765625 4.16015625 C6.08605469 5.44792969 6.07445312 6.73570312 6.0625 8.0625 C6.05347656 9.35285156 6.04445313 10.64320313 6.03515625 11.97265625 C6.02355469 12.97167969 6.01195312 13.97070312 6 15 C7.32 15 8.64 15 10 15 C10 15.66 10 16.32 10 17 C6.7 17 3.4 17 0 17 C0 16.34 0 15.68 0 15 C1.32 15 2.64 15 4 15 C4 10.71 4 6.42 4 2 C2.68 2 1.36 2 0 2 C0 1.34 0 0.68 0 0 Z " fill="#EDEEEF" transform="translate(256,177)"/>
<path d="M0 0 C3 1 3 1 4.6875 4.0625 C5.120625 5.031875 5.55375 6.00125 6 7 C6.99 4.69 7.98 2.38 9 0 C9.99 0 10.98 0 12 0 C11.52269162 1.4589426 11.04308958 2.91713496 10.5625 4.375 C10.29566406 5.18710938 10.02882812 5.99921875 9.75390625 6.8359375 C9 9 9 9 8 11 C6.68 11 5.36 11 4 11 C3.32880451 9.5437455 2.66318193 8.08492133 2 6.625 C1.62875 5.81289062 1.2575 5.00078125 0.875 4.1640625 C0 2 0 2 0 0 Z " fill="#EEF0F0" transform="translate(221,158)"/>
<path d="M0 0 C2.97 0 5.94 0 9 0 C10.20272819 2.40545638 10.10071472 3.94996953 10.0625 6.625 C10.05347656 7.44226563 10.04445312 8.25953125 10.03515625 9.1015625 C10.02355469 9.72804687 10.01195312 10.35453125 10 11 C9.34 11 8.68 11 8 11 C7.67 8.36 7.34 5.72 7 3 C5.68 3 4.36 3 3 3 C2.67 5.64 2.34 8.28 2 11 C1.34 11 0.68 11 0 11 C0 7.37 0 3.74 0 0 Z " fill="#F4F5F6" transform="translate(139,158)"/>
<path d="M0 0 C0.66 0 1.32 0 2 0 C2 0.99 2 1.98 2 3 C3.65 3 5.3 3 7 3 C7 3.66 7 4.32 7 5 C5.35 5 3.7 5 2 5 C2 7.31 2 9.62 2 12 C3.65 12 5.3 12 7 12 C7 12.66 7 13.32 7 14 C5.00045254 14.04254356 2.99958364 14.04080783 1 14 C0 13 0 13 -0.09765625 11.15234375 C-0.06510417 9.1015625 -0.03255208 7.05078125 0 5 C-0.99 5 -1.98 5 -3 5 C-3 4.34 -3 3.68 -3 3 C-2.01 3 -1.02 3 0 3 C0 2.01 0 1.02 0 0 Z " fill="#F2F3F4" transform="translate(197,155)"/>
<path d="M0 0 C1.98 0 3.96 0 6 0 C6 2.64 6 5.28 6 8 C3.36 8.33 0.72 8.66 -2 9 C-2.66 8.01 -3.32 7.02 -4 6 C-2.02 5.67 -0.04 5.34 2 5 C2.33 4.01 2.66 3.02 3 2 C2.01 2 1.02 2 0 2 C0 1.34 0 0.68 0 0 Z " fill="#EAECED" transform="translate(116,161)"/>
<path d="M0 0 C2.00720923 0.28674418 4.0085944 0.61866701 6 1 C6.33 2.98 6.66 4.96 7 7 C4.66705225 7.04241723 2.33297433 7.04092937 0 7 C-1 6 -1 6 -1.125 3.5 C-1 1 -1 1 0 0 Z " fill="#ACB4B7" transform="translate(244,187)"/>
<path d="M0 0 C1.66611905 -0.042721 3.33382885 -0.04063832 5 0 C6 1 6 1 6.09765625 2.84765625 C6.06510417 4.8984375 6.03255208 6.94921875 6 9 C7.32 9 8.64 9 10 9 C10 9.66 10 10.32 10 11 C6.7 11 3.4 11 0 11 C0 10.34 0 9.68 0 9 C1.32 9 2.64 9 4 9 C4 6.69 4 4.38 4 2 C2.68 2 1.36 2 0 2 C0 1.34 0 0.68 0 0 Z " fill="#E8EAEB" transform="translate(208,158)"/>
<path d="M0 0 C2.1519437 3.22791555 2.20086443 4.28400809 2 8 C0.68 8 -0.64 8 -2 8 C-2.33 9.32 -2.66 10.64 -3 12 C-3.66 12 -4.32 12 -5 12 C-4.67 9.36 -4.34 6.72 -4 4 C-3.34 4.33 -2.68 4.66 -2 5 C-1.34 3.35 -0.68 1.7 0 0 Z " fill="#A3ACAF" transform="translate(268,157)"/>
<path d="M0 0 C2.00720923 0.28674418 4.0085944 0.61866701 6 1 C5.649375 1.61875 5.29875 2.2375 4.9375 2.875 C4.4734375 3.926875 4.4734375 3.926875 4 5 C4.33 5.66 4.66 6.32 5 7 C2.625 7.125 2.625 7.125 0 7 C-0.66 6.34 -1.32 5.68 -2 5 C-1.46428571 1.46428571 -1.46428571 1.46428571 0 0 Z " fill="#A4ADB0" transform="translate(175,187)"/>
<path d="M0 0 C1.32 0.33 2.64 0.66 4 1 C3.67 4.63 3.34 8.26 3 12 C2.01 12 1.02 12 0 12 C0 8.04 0 4.08 0 0 Z " fill="#D5D9DA" transform="translate(145,182)"/>
<path d="M0 0 C2.125 0.375 2.125 0.375 4 1 C4 2.98 4 4.96 4 7 C2.35 7 0.7 7 -1 7 C-1.625 4.625 -1.625 4.625 -2 2 C-1.34 1.34 -0.68 0.68 0 0 Z " fill="#30444B" transform="translate(163,184)"/>
<path d="M0 0 C0.33 0.99 0.66 1.98 1 3 C-0.45449401 4.0055761 -1.91372443 5.00430435 -3.375 6 C-4.59316406 6.8353125 -4.59316406 6.8353125 -5.8359375 7.6875 C-8 9 -8 9 -10 9 C-9.34928072 6.07176325 -8.65065146 4.41562022 -6.0859375 2.77734375 C-4.07869072 1.78790585 -2.0657943 0.85994693 0 0 Z " fill="#2D4149" transform="translate(118,65)"/>
<path d="M0 0 C3.125 0.375 3.125 0.375 6 1 C5.34 2.98 4.68 4.96 4 7 C2.35 6.67 0.7 6.34 -1 6 C-1.625 4.125 -1.625 4.125 -2 2 C-1.34 1.34 -0.68 0.68 0 0 Z " fill="#9BA4A8" transform="translate(182,163)"/>
<path d="M0 0 C0.33 0.66 0.66 1.32 1 2 C0.67 2.99 0.34 3.98 0 5 C-5.75 5.125 -5.75 5.125 -8 4 C-7.67 3.01 -7.34 2.02 -7 1 C-4.53721199 -0.231394 -2.7204945 -0.07159196 0 0 Z " fill="#9EA7AA" transform="translate(209,182)"/>
<path d="M0 0 C2.125 0.9375 2.125 0.9375 4 2 C4 3.32 4 4.64 4 6 C1.36 5.67 -1.28 5.34 -4 5 C-2.25 1.125 -2.25 1.125 0 0 Z " fill="#A5AEB1" transform="translate(159,158)"/>
<path d="M0 0 C0.66 0.66 1.32 1.32 2 2 C-2.95 4.64 -7.9 7.28 -13 10 C-13.66 9.34 -14.32 8.68 -15 8 C-10.05 5.36 -5.1 2.72 0 0 Z " fill="#D4D8D9" transform="translate(119,57)"/>
<path d="M0 0 C2.875 -0.125 2.875 -0.125 6 0 C8 2 8 2 8 6 C5.69 6 3.38 6 1 6 C1 5.67 1 5.34 1 5 C2.65 5 4.3 5 6 5 C5.67 4.34 5.34 3.68 5 3 C3.35 3 1.7 3 0 3 C0 2.01 0 1.02 0 0 Z " fill="#F2F3F3" transform="translate(127,158)"/>
<path d="M0 0 C0.66 0.66 1.32 1.32 2 2 C5.58343976 2.16677282 5.58343976 2.16677282 9 2 C8.01 3.32 7.02 4.64 6 6 C3.03 5.505 3.03 5.505 0 5 C-0.5625 3.0625 -0.5625 3.0625 -1 1 C-0.67 0.67 -0.34 0.34 0 0 Z " fill="#DBDEDF" transform="translate(126,164)"/>
<path d="M0 0 C0.598125 0.226875 1.19625 0.45375 1.8125 0.6875 C0.4925 2.0075 -0.8275 3.3275 -2.1875 4.6875 C-0.5375 4.6875 1.1125 4.6875 2.8125 4.6875 C2.8125 5.0175 2.8125 5.3475 2.8125 5.6875 C0.8325 5.6875 -1.1475 5.6875 -3.1875 5.6875 C-3.1875 6.3475 -3.1875 7.0075 -3.1875 7.6875 C-3.8475 7.6875 -4.5075 7.6875 -5.1875 7.6875 C-5.41803497 4.84423536 -5.54653101 3.22604651 -3.9375 0.8125 C-2.1875 -0.3125 -2.1875 -0.3125 0 0 Z " fill="#EFF0F1" transform="translate(157.1875,158.3125)"/>
<path d="M0 0 C0.33 0.99 0.66 1.98 1 3 C3.64 2.67 6.28 2.34 9 2 C8.01 3.32 7.02 4.64 6 6 C3.03 5.505 3.03 5.505 0 5 C-0.33 4.01 -0.66 3.02 -1 2 C-0.67 1.34 -0.34 0.68 0 0 Z " fill="#DADDDF" transform="translate(237,164)"/>
<path d="M0 0 C0.33 0.99 0.66 1.98 1 3 C-1.97 2.505 -1.97 2.505 -5 2 C-4.01 3.32 -3.02 4.64 -2 6 C-3.65 5.67 -5.3 5.34 -7 5 C-7 3.68 -7 2.36 -7 1 C-4.53721199 -0.231394 -2.7204945 -0.07159196 0 0 Z " fill="#F6F7F7" transform="translate(278,182)"/>
<path d="M0 0 C3 1 3 1 4.625 3.9375 C5.07875 4.948125 5.5325 5.95875 6 7 C6.33 7.66 6.66 8.32 7 9 C5.68 9 4.36 9 3 9 C2.01 6.03 1.02 3.06 0 0 Z " fill="#E5E7E8" transform="translate(221,158)"/>
<path d="M0 0 C2.875 -0.125 2.875 -0.125 6 0 C8 2 8 2 8 6 C7.01 5.67 6.02 5.34 5 5 C5 4.34 5 3.68 5 3 C3.35 3 1.7 3 0 3 C0 2.01 0 1.02 0 0 Z " fill="#F0F1F2" transform="translate(238,158)"/>
<path d="M0 0 C1.98 0.99 1.98 0.99 4 2 C3.67 2.33 3.34 2.66 3 3 C2.76924918 4.34747084 2.58846937 5.70377565 2.4375 7.0625 C2.2209375 9.0115625 2.2209375 9.0115625 2 11 C1.34 11 0.68 11 0 11 C0 7.37 0 3.74 0 0 Z " fill="#FBFCFC" transform="translate(139,158)"/>
<path d="M0 0 C1.46972992 2.93945984 1 5.74955436 1 9 C1.33 9.66 1.66 10.32 2 11 C1.01 11.33 0.02 11.66 -1 12 C-2.20272819 9.59454362 -2.10071472 8.05003047 -2.0625 5.375 C-2.05347656 4.55773437 -2.04445313 3.74046875 -2.03515625 2.8984375 C-2.02355469 2.27195313 -2.01195313 1.64546875 -2 1 C-1.34 0.67 -0.68 0.34 0 0 Z " fill="#F1F2F3" transform="translate(112,156)"/>
<path d="M0 0 C1.32 0.66 2.64 1.32 4 2 C3.34 3.32 2.68 4.64 2 6 C0.68 5.34 -0.64 4.68 -2 4 C-1.34 2.68 -0.68 1.36 0 0 Z " fill="#E4E6E7" transform="translate(255,44)"/>
<path d="M0 0 C1.76462683 3.08809695 2 4.23312136 2 8 C1.34 8 0.68 8 0 8 C-0.33 7.34 -0.66 6.68 -1 6 C-3.52733235 5.34444881 -3.52733235 5.34444881 -6 5 C-5.38125 4.731875 -4.7625 4.46375 -4.125 4.1875 C-1.7004767 3.04443152 -1.7004767 3.04443152 0 0 Z " fill="#CCD1D3" transform="translate(272,161)"/>
<path d="M0 0 C2.64 0 5.28 0 8 0 C8 0.66 8 1.32 8 2 C5.36 2.33 2.72 2.66 0 3 C0 2.01 0 1.02 0 0 Z " fill="#32454D" transform="translate(238,164)"/>
<path d="M0 0 C2.64 0 5.28 0 8 0 C8 0.66 8 1.32 8 2 C5.36 2.33 2.72 2.66 0 3 C0 2.01 0 1.02 0 0 Z " fill="#30444B" transform="translate(155,164)"/>
<path d="M0 0 C2.64 0 5.28 0 8 0 C8 0.66 8 1.32 8 2 C5.69 2.33 3.38 2.66 1 3 C0.67 2.01 0.34 1.02 0 0 Z " fill="#2D4148" transform="translate(127,164)"/>
<path d="M0 0 C-0.1875 1.875 -0.1875 1.875 -1 4 C-3.5625 5.25 -3.5625 5.25 -6 6 C-3.84615385 0 -3.84615385 0 0 0 Z " fill="#3F5258" transform="translate(120,54)"/>
<path d="M0 0 C2.31 0 4.62 0 7 0 C7.33 0.66 7.66 1.32 8 2 C6.02 2.33 4.04 2.66 2 3 C1.34 2.01 0.68 1.02 0 0 Z " fill="#D1D5D6" transform="translate(112,167)"/>
<path d="M0 0 C2.31 0 4.62 0 7 0 C7.33 0.99 7.66 1.98 8 3 C5.36 2.67 2.72 2.34 0 2 C0 1.34 0 0.68 0 0 Z " fill="#526268" transform="translate(180,160)"/>
</svg>
